<?xml version="1.0" encoding="UTF-8" standalone="no"?>
<!DOCTYPE svg PUBLIC "-//W3C//DTD SVG 1.1//EN" "http://www.w3.org/Graphics/SVG/1.1/DTD/svg11.dtd">
<svg width="100%" height="100%" viewBox="0 0 90 30" version="1.1" xmlns="http://www.w3.org/2000/svg" xmlns:xlink="http://www.w3.org/1999/xlink" xml:space="preserve" xmlns:serif="http://www.serif.com/" style="fill-rule:evenodd;clip-rule:evenodd;stroke-linejoin:round;stroke-miterlimit:1.41421;">
    <g id="g4336" transform="matrix(0.570202,0,0,-0.570202,-294.867,83.7416)">
        <g id="path4344" transform="matrix(1,0,0,1,633.669,109.341)">
            <path d="M0,0C0,-0.813 -0.659,-1.472 -1.472,-1.472C-2.285,-1.472 -2.944,-0.813 -2.944,0C-2.944,0.814 -2.285,1.473 -1.472,1.473C-0.659,1.473 0,0.814 0,0" style="fill:rgb(43,43,42);fill-rule:nonzero;"/>
        </g>
        <g id="path4348" transform="matrix(1,0,0,1,601.48,121.204)">
            <path d="M0,0L0,-2.074L2.742,-2.074L2.742,-3.15L0,-3.15L0,-5.999L-1.213,-5.999L-1.213,1.105L3.12,1.105L3.12,0L0,0Z" style="fill:rgb(43,43,42);fill-rule:nonzero;"/>
        </g>
        <g id="path4352" transform="matrix(1,0,0,1,611.637,117.928)">
            <path d="M0,0C0,-0.453 -0.068,-0.854 -0.204,-1.207C-0.339,-1.559 -0.53,-1.856 -0.775,-2.099C-1.021,-2.341 -1.319,-2.525 -1.672,-2.651C-2.024,-2.778 -2.419,-2.841 -2.858,-2.841C-3.75,-2.841 -4.444,-2.598 -4.938,-2.114C-5.433,-1.629 -5.681,-0.924 -5.681,0L-5.681,4.381L-4.468,4.381L-4.468,0.087C-4.468,-0.527 -4.326,-0.984 -4.042,-1.284C-3.757,-1.585 -3.357,-1.735 -2.84,-1.735C-2.329,-1.735 -1.93,-1.583 -1.643,-1.28C-1.354,-0.976 -1.212,-0.52 -1.212,0.087L-1.212,4.381L0,4.381L0,0Z" style="fill:rgb(43,43,42);fill-rule:nonzero;"/>
        </g>
        <g id="path4356" transform="matrix(1,0,0,1,619.148,115.069)">
            <path d="M0,0L-4.45,4.69L-4.45,0.136L-5.66,0.136L-5.66,7.338L-5.467,7.376L-1.077,2.753L-1.077,7.24L0.136,7.24L0.136,0.029L0,0Z" style="fill:rgb(43,43,42);fill-rule:nonzero;"/>
        </g>
        <g id="path4360" transform="matrix(1,0,0,1,627.125,115.757)">
            <path d="M0,0C-0.297,-0.187 -0.646,-0.346 -1.047,-0.475C-1.447,-0.605 -1.87,-0.67 -2.317,-0.67C-2.878,-0.67 -3.394,-0.577 -3.862,-0.393C-4.33,-0.209 -4.734,0.046 -5.074,0.374C-5.414,0.699 -5.677,1.085 -5.864,1.53C-6.05,1.978 -6.146,2.465 -6.146,2.994C-6.146,3.518 -6.05,4.004 -5.859,4.454C-5.669,4.902 -5.403,5.291 -5.064,5.622C-4.725,5.95 -4.32,6.209 -3.852,6.391C-3.383,6.576 -2.872,6.668 -2.317,6.668C-1.87,6.668 -1.454,6.607 -1.066,6.483C-0.678,6.361 -0.333,6.206 -0.03,6.019L-0.446,4.992C-0.73,5.153 -1.038,5.283 -1.366,5.383C-1.696,5.483 -2.019,5.534 -2.336,5.534C-2.723,5.534 -3.073,5.473 -3.383,5.35C-3.692,5.227 -3.956,5.054 -4.173,4.832C-4.388,4.609 -4.555,4.341 -4.672,4.027C-4.788,3.714 -4.847,3.37 -4.847,2.994C-4.847,2.619 -4.786,2.278 -4.666,1.967C-4.548,1.657 -4.378,1.39 -4.158,1.168C-3.939,0.945 -3.672,0.771 -3.358,0.65C-3.046,0.527 -2.694,0.465 -2.306,0.465C-1.99,0.465 -1.661,0.517 -1.318,0.619C-0.976,0.723 -0.659,0.859 -0.369,1.027L0,0Z" style="fill:rgb(43,43,42);fill-rule:nonzero;"/>
        </g>
        <g id="path4364" transform="matrix(1,0,0,1,631.516,121.204)">
            <path d="M0,0L0,-5.999L-1.211,-5.999L-1.211,0L-3.47,0L-3.47,1.105L2.249,1.105L2.249,0L0,0Z" style="fill:rgb(43,43,42);fill-rule:nonzero;"/>
        </g>
        <rect id="path4366" x="635.218" y="115.205" width="1.211" height="7.104" style="fill:rgb(43,43,42);fill-rule:nonzero;"/>
        <g id="path4370" transform="matrix(1,0,0,1,644.058,118.752)">
            <path d="M0,0C0,0.369 -0.056,0.711 -0.17,1.027C-0.283,1.344 -0.44,1.619 -0.641,1.851C-0.841,2.084 -1.081,2.265 -1.362,2.394C-1.643,2.523 -1.951,2.588 -2.287,2.588C-2.623,2.588 -2.934,2.523 -3.218,2.394C-3.502,2.265 -3.745,2.084 -3.946,1.851C-4.146,1.619 -4.302,1.344 -4.415,1.027C-4.528,0.711 -4.584,0.369 -4.584,0C-4.584,-0.368 -4.528,-0.711 -4.415,-1.027C-4.302,-1.344 -4.146,-1.617 -3.946,-1.846C-3.745,-2.076 -3.502,-2.257 -3.218,-2.389C-2.934,-2.521 -2.623,-2.587 -2.287,-2.587C-1.951,-2.587 -1.643,-2.521 -1.362,-2.389C-1.081,-2.257 -0.841,-2.076 -0.641,-1.846C-0.44,-1.617 -0.283,-1.344 -0.17,-1.027C-0.056,-0.711 0,-0.368 0,0M1.298,0C1.298,-0.523 1.207,-1.01 1.022,-1.458C0.839,-1.908 0.583,-2.295 0.256,-2.621C-0.07,-2.949 -0.452,-3.203 -0.892,-3.387C-1.331,-3.571 -1.81,-3.664 -2.326,-3.664C-2.838,-3.664 -3.31,-3.571 -3.747,-3.387C-4.182,-3.203 -4.559,-2.949 -4.876,-2.621C-5.192,-2.295 -5.439,-1.908 -5.617,-1.458C-5.794,-1.01 -5.883,-0.523 -5.883,0C-5.883,0.53 -5.791,1.019 -5.608,1.469C-5.422,1.917 -5.168,2.306 -4.841,2.631C-4.516,2.958 -4.13,3.214 -3.689,3.397C-3.246,3.582 -2.769,3.674 -2.259,3.674C-1.742,3.674 -1.266,3.582 -0.834,3.397C-0.401,3.214 -0.026,2.958 0.29,2.631C0.606,2.306 0.854,1.917 1.032,1.469C1.21,1.019 1.298,0.53 1.298,0" style="fill:rgb(43,43,42);fill-rule:nonzero;"/>
        </g>
        <g id="path4374" transform="matrix(1,0,0,1,652.712,115.069)">
            <path d="M0,0L-4.449,4.69L-4.449,0.136L-5.66,0.136L-5.66,7.338L-5.466,7.376L-1.076,2.753L-1.076,7.24L0.136,7.24L0.136,0.029L0,0Z" style="fill:rgb(43,43,42);fill-rule:nonzero;"/>
        </g>
        <g id="path4378" transform="matrix(1,0,0,1,657.327,120.166)">
            <path d="M0,0L-1.008,-2.374L1.008,-2.374L0,0ZM2.093,-4.962L1.405,-3.334L-1.406,-3.334L-2.094,-4.962L-3.344,-4.962L-0.069,2.24L0.106,2.24L3.373,-4.962L2.093,-4.962Z" style="fill:rgb(43,43,42);fill-rule:nonzero;"/>
        </g>
        <g id="path4382" transform="matrix(1,0,0,1,661.833,115.205)">
            <path d="M0,0L0,7.104L1.213,7.104L1.213,1.105L4.333,1.105L4.333,0L0,0Z" style="fill:rgb(43,43,42);fill-rule:nonzero;"/>
        </g>
        <g id="path4386" transform="matrix(1,0,0,1,606.18,105.67)">
            <path d="M0,0L-0.096,4.255L-2.335,0.863L-2.482,0.863L-4.739,4.265L-4.817,0L-6.01,0L-5.708,7.192L-5.524,7.212L-2.374,2.502L0.698,7.212L0.892,7.192L1.192,0L0,0Z" style="fill:rgb(43,43,42);fill-rule:nonzero;"/>
        </g>
        <g id="path4390" transform="matrix(1,0,0,1,614.855,109.218)">
            <path d="M0,0C0,0.369 -0.056,0.711 -0.17,1.027C-0.283,1.344 -0.439,1.618 -0.641,1.85C-0.84,2.084 -1.082,2.265 -1.361,2.394C-1.643,2.523 -1.951,2.588 -2.287,2.588C-2.623,2.588 -2.934,2.523 -3.218,2.394C-3.502,2.265 -3.744,2.084 -3.945,1.85C-4.146,1.618 -4.302,1.344 -4.415,1.027C-4.528,0.711 -4.585,0.369 -4.585,0C-4.585,-0.368 -4.528,-0.71 -4.415,-1.026C-4.302,-1.345 -4.146,-1.617 -3.945,-1.846C-3.744,-2.076 -3.502,-2.257 -3.218,-2.389C-2.934,-2.522 -2.623,-2.587 -2.287,-2.587C-1.951,-2.587 -1.643,-2.522 -1.361,-2.389C-1.082,-2.257 -0.84,-2.076 -0.641,-1.846C-0.439,-1.617 -0.283,-1.345 -0.17,-1.026C-0.056,-0.71 0,-0.368 0,0M1.298,0C1.298,-0.523 1.206,-1.01 1.022,-1.458C0.839,-1.908 0.583,-2.295 0.257,-2.622C-0.07,-2.949 -0.452,-3.203 -0.892,-3.387C-1.331,-3.571 -1.81,-3.663 -2.326,-3.663C-2.837,-3.663 -3.31,-3.571 -3.746,-3.387C-4.183,-3.203 -4.558,-2.949 -4.875,-2.622C-5.192,-2.295 -5.439,-1.908 -5.617,-1.458C-5.794,-1.01 -5.883,-0.523 -5.883,0C-5.883,0.53 -5.791,1.019 -5.607,1.469C-5.422,1.917 -5.167,2.306 -4.842,2.631C-4.516,2.958 -4.13,3.214 -3.688,3.398C-3.246,3.582 -2.769,3.674 -2.258,3.674C-1.742,3.674 -1.266,3.582 -0.833,3.398C-0.401,3.214 -0.025,2.958 0.29,2.631C0.607,2.306 0.854,1.917 1.032,1.469C1.21,1.019 1.298,0.53 1.298,0" style="fill:rgb(43,43,42);fill-rule:nonzero;"/>
        </g>
        <g id="path4394" transform="matrix(1,0,0,1,623.752,106.223)">
            <path d="M0,0C-0.297,-0.187 -0.646,-0.346 -1.046,-0.475C-1.447,-0.604 -1.87,-0.669 -2.316,-0.669C-2.878,-0.669 -3.394,-0.577 -3.862,-0.393C-4.33,-0.209 -4.734,0.046 -5.074,0.373C-5.413,0.699 -5.677,1.086 -5.863,1.531C-6.05,1.978 -6.145,2.466 -6.145,2.994C-6.145,3.518 -6.049,4.005 -5.858,4.453C-5.667,4.902 -5.402,5.292 -5.064,5.621C-4.724,5.951 -4.32,6.208 -3.852,6.392C-3.383,6.576 -2.872,6.668 -2.316,6.668C-1.87,6.668 -1.452,6.606 -1.066,6.484C-0.678,6.362 -0.333,6.206 -0.028,6.018L-0.446,4.991C-0.73,5.152 -1.036,5.283 -1.366,5.384C-1.695,5.484 -2.018,5.534 -2.335,5.534C-2.722,5.534 -3.072,5.473 -3.382,5.35C-3.692,5.226 -3.954,5.054 -4.172,4.831C-4.388,4.609 -4.554,4.34 -4.671,4.026C-4.787,3.714 -4.846,3.37 -4.846,2.994C-4.846,2.619 -4.786,2.278 -4.666,1.968C-4.547,1.657 -4.377,1.39 -4.158,1.168C-3.938,0.945 -3.672,0.772 -3.358,0.65C-3.044,0.526 -2.694,0.465 -2.306,0.465C-1.989,0.465 -1.659,0.517 -1.317,0.62C-0.975,0.723 -0.658,0.858 -0.367,1.027L0,0Z" style="fill:rgb(43,43,42);fill-rule:nonzero;"/>
        </g>
        <g id="path4398" transform="matrix(1,0,0,1,629.325,105.67)">
            <path d="M0,0L-2.908,3.412L-2.908,0L-4.118,0L-4.118,7.106L-2.908,7.106L-2.908,3.906L-0.116,7.106L1.348,7.106L-1.754,3.694L1.503,0L0,0Z" style="fill:rgb(43,43,42);fill-rule:nonzero;"/>
        </g>
        <g id="path4402" transform="matrix(1,0,0,1,640.956,108.395)">
            <path d="M0,0C0,-0.452 -0.069,-0.854 -0.203,-1.207C-0.34,-1.559 -0.53,-1.856 -0.776,-2.099C-1.021,-2.342 -1.32,-2.525 -1.672,-2.65C-2.025,-2.777 -2.42,-2.84 -2.859,-2.84C-3.75,-2.84 -4.445,-2.598 -4.938,-2.114C-5.433,-1.629 -5.68,-0.924 -5.68,0L-5.68,4.382L-4.468,4.382L-4.468,0.086C-4.468,-0.527 -4.326,-0.983 -4.042,-1.285C-3.758,-1.584 -3.357,-1.735 -2.839,-1.735C-2.33,-1.735 -1.93,-1.583 -1.643,-1.28C-1.356,-0.976 -1.212,-0.521 -1.212,0.086L-1.212,4.382L0,4.382L0,0Z" style="fill:rgb(43,43,42);fill-rule:nonzero;"/>
        </g>
        <g id="path4406" transform="matrix(1,0,0,1,646.297,110.391)">
            <path d="M0,0C0,0.175 -0.031,0.342 -0.093,0.5C-0.154,0.658 -0.246,0.798 -0.369,0.921C-0.49,1.044 -0.647,1.141 -0.834,1.212C-1.022,1.283 -1.238,1.318 -1.483,1.318C-1.761,1.318 -2.026,1.299 -2.278,1.261L-2.278,-1.338C-2.154,-1.35 -2.039,-1.36 -1.93,-1.366C-1.818,-1.373 -1.71,-1.376 -1.6,-1.376C-1.05,-1.376 -0.647,-1.249 -0.387,-0.993C-0.13,-0.738 0,-0.406 0,0M1.259,0.039C1.259,-0.323 1.197,-0.655 1.07,-0.959C0.945,-1.263 0.762,-1.523 0.523,-1.74C0.284,-1.956 -0.013,-2.126 -0.364,-2.249C-0.717,-2.371 -1.118,-2.433 -1.57,-2.433C-1.686,-2.433 -1.805,-2.43 -1.925,-2.423C-2.044,-2.417 -2.162,-2.41 -2.278,-2.404L-2.278,-4.72L-3.49,-4.72L-3.49,2.317C-2.856,2.394 -2.256,2.433 -1.686,2.433C-1.202,2.433 -0.776,2.37 -0.408,2.244C-0.039,2.118 0.269,1.947 0.518,1.73C0.767,1.514 0.953,1.261 1.076,0.97C1.198,0.678 1.259,0.369 1.259,0.039" style="fill:rgb(43,43,42);fill-rule:nonzero;"/>
        </g>
        <rect id="path4408" x="600.317" y="96.568" width="1.212" height="7.106" style="fill:rgb(43,43,42);fill-rule:nonzero;"/>
        <g id="path4412" transform="matrix(1,0,0,1,609.175,96.4328)">
            <path d="M0,0L-4.449,4.69L-4.449,0.135L-5.661,0.135L-5.661,7.337L-5.466,7.376L-1.075,2.752L-1.075,7.241L0.136,7.241L0.136,0.029L0,0Z" style="fill:rgb(43,43,42);fill-rule:nonzero;"/>
        </g>
        <g id="path4416" transform="matrix(1,0,0,1,613.992,102.567)">
            <path d="M0,0L0,-5.999L-1.211,-5.999L-1.211,0L-3.47,0L-3.47,1.106L2.249,1.106L2.249,0L0,0Z" style="fill:rgb(43,43,42);fill-rule:nonzero;"/>
        </g>
        <g id="path4420" transform="matrix(1,0,0,1,617.258,96.568)">
            <path d="M0,0L0,7.106L4.333,7.106L4.333,5.999L1.213,5.999L1.213,4.139L4.033,4.139L4.033,3.073L1.213,3.073L1.213,1.106L4.333,1.106L4.333,0L0,0Z" style="fill:rgb(43,43,42);fill-rule:nonzero;"/>
        </g>
        <g id="path4424" transform="matrix(1,0,0,1,626.719,101.424)">
            <path d="M0,0C0,0.362 -0.13,0.654 -0.388,0.878C-0.647,1.1 -1.009,1.212 -1.474,1.212C-1.622,1.212 -1.766,1.209 -1.9,1.202C-2.036,1.195 -2.166,1.18 -2.288,1.154L-2.288,-1.27C-2.178,-1.283 -2.064,-1.292 -1.944,-1.298C-1.825,-1.306 -1.708,-1.309 -1.59,-1.309C-1.061,-1.309 -0.663,-1.192 -0.398,-0.96C-0.133,-0.726 0,-0.407 0,0M0.349,-4.856L-1.203,-2.297C-1.267,-2.303 -1.328,-2.307 -1.386,-2.307L-1.581,-2.307C-1.697,-2.307 -1.814,-2.305 -1.934,-2.302C-2.054,-2.299 -2.172,-2.294 -2.288,-2.287L-2.288,-4.856L-3.5,-4.856L-3.5,2.181C-3.216,2.214 -2.923,2.24 -2.623,2.263C-2.322,2.286 -1.99,2.297 -1.629,2.297C-1.125,2.297 -0.69,2.239 -0.325,2.122C0.04,2.006 0.342,1.848 0.581,1.648C0.819,1.447 0.995,1.212 1.11,0.941C1.222,0.669 1.278,0.375 1.278,0.058C1.278,-0.407 1.158,-0.818 0.92,-1.173C0.682,-1.529 0.338,-1.802 -0.108,-1.997L1.753,-4.856L0.349,-4.856Z" style="fill:rgb(43,43,42);fill-rule:nonzero;"/>
        </g>
        <g id="path4428" transform="matrix(1,0,0,1,631.138,102.567)">
            <path d="M0,0L0,-2.074L2.743,-2.074L2.743,-3.15L0,-3.15L0,-5.999L-1.211,-5.999L-1.211,1.106L3.122,1.106L3.122,0L0,0Z" style="fill:rgb(43,43,42);fill-rule:nonzero;"/>
        </g>
        <g id="path4432" transform="matrix(1,0,0,1,637.622,101.53)">
            <path d="M0,0L-1.008,-2.374L1.008,-2.374L0,0ZM2.094,-4.962L1.406,-3.334L-1.405,-3.334L-2.093,-4.962L-3.344,-4.962L-0.068,2.239L0.106,2.239L3.374,-4.962L2.094,-4.962Z" style="fill:rgb(43,43,42);fill-rule:nonzero;"/>
        </g>
        <g id="path4436" transform="matrix(1,0,0,1,648.031,97.1211)">
            <path d="M0,0C-0.297,-0.188 -0.646,-0.346 -1.046,-0.475C-1.447,-0.605 -1.87,-0.669 -2.316,-0.669C-2.878,-0.669 -3.394,-0.578 -3.862,-0.394C-4.33,-0.21 -4.734,0.046 -5.074,0.373C-5.413,0.698 -5.677,1.085 -5.864,1.531C-6.05,1.978 -6.146,2.465 -6.146,2.994C-6.146,3.518 -6.05,4.004 -5.858,4.453C-5.668,4.902 -5.403,5.291 -5.064,5.621C-4.725,5.95 -4.32,6.208 -3.852,6.392C-3.384,6.576 -2.872,6.668 -2.316,6.668C-1.87,6.668 -1.453,6.606 -1.066,6.483C-0.678,6.362 -0.333,6.206 -0.028,6.018L-0.446,4.991C-0.73,5.152 -1.037,5.283 -1.366,5.383C-1.695,5.484 -2.018,5.534 -2.335,5.534C-2.723,5.534 -3.072,5.473 -3.382,5.35C-3.692,5.226 -3.956,5.054 -4.172,4.831C-4.389,4.609 -4.554,4.34 -4.672,4.026C-4.787,3.714 -4.846,3.369 -4.846,2.994C-4.846,2.619 -4.786,2.278 -4.666,1.968C-4.547,1.657 -4.378,1.39 -4.158,1.167C-3.938,0.945 -3.672,0.771 -3.358,0.65C-3.045,0.526 -2.694,0.465 -2.306,0.465C-1.99,0.465 -1.66,0.517 -1.318,0.62C-0.976,0.723 -0.658,0.858 -0.368,1.027L0,0Z" style="fill:rgb(43,43,42);fill-rule:nonzero;"/>
        </g>
        <g id="path4440" transform="matrix(1,0,0,1,649.485,96.568)">
            <path d="M0,0L0,7.106L4.333,7.106L4.333,5.999L1.212,5.999L1.212,4.139L4.032,4.139L4.032,3.073L1.212,3.073L1.212,1.106L4.333,1.106L4.333,0L0,0Z" style="fill:rgb(43,43,42);fill-rule:nonzero;"/>
        </g>
        <g id="path4444" transform="matrix(1,0,0,1,590.49,96.2774)">
            <path d="M0,0L-62.502,0L-62.502,4.551L-59.804,2.214L-56.979,4.551L-33.065,4.551L-30.437,2.217L-27.602,4.551L-5.466,4.551L-2.804,2.219L0,4.551L0,0Z" style="fill:rgb(43,43,42);fill-rule:nonzero;"/>
        </g>
        <g id="path4448" transform="matrix(1,0,0,1,539.345,145.236)">
            <path d="M0,0L0.346,0L0.346,-5.4L0,-5.4C-2.782,-5.4 -4.542,-6.366 -5.284,-8.296C-5.672,-9.315 -5.865,-10.253 -5.865,-11.101L-5.865,-13.582L2.138,-13.582L0.163,-18.98L-5.865,-18.98L-5.865,-43.083L-8.662,-45.332L-11.264,-43.083L-11.264,-18.98L-19.682,-18.98L-17.712,-13.582L-11.264,-13.582L-11.264,-11.101C-11.264,-7.64 -9.998,-4.712 -7.462,-2.317C-6.49,-1.576 -5.463,-1.005 -4.383,-0.601C-3.083,-0.199 -1.623,0 0,0" style="fill:rgb(43,43,42);fill-rule:nonzero;"/>
        </g>
        <g id="path4452" transform="matrix(1,0,0,1,552.09,131.654)">
            <path d="M0,0C3.137,0 5.847,-1.226 8.134,-3.682C10.36,-1.226 13.173,0.064 16.45,0.064C25.624,0.064 27.115,-7.64 27.115,-10.498L27.115,-26.649L21.715,-26.649L21.715,-10.983C21.715,-8.482 20.455,-6.698 17.938,-5.63C17.243,-5.476 16.686,-5.398 16.27,-5.398C14.06,-5.398 12.376,-6.527 11.218,-8.783C10.937,-9.509 10.799,-10.42 10.799,-11.517L10.799,-29.504L7.972,-31.746L5.399,-29.504L5.399,-10.683C5.399,-8.705 4.548,-5.398 0.196,-5.398C-4.494,-5.398 -5.448,-9.407 -5.448,-10.73L-5.448,-26.649L-10.847,-26.649L-10.822,-11.095C-10.822,-5.121 -7.86,0 0,0" style="fill:rgb(43,43,42);fill-rule:nonzero;"/>
        </g>
        <g id="path4456" transform="matrix(1,0,0,1,585.027,122.472)">
            <path d="M0,0L0,-20.323L2.659,-22.564L5.458,-20.323L5.458,0L0,0Z" style="fill:rgb(43,43,42);fill-rule:nonzero;"/>
        </g>
        <rect id="path4458" x="585.034" y="124.945" width="5.457" height="6.709" style="fill:rgb(43,43,42);fill-rule:nonzero;"/>
    </g>
</svg>
