<?xml version="1.0" encoding="UTF-8" standalone="no"?><!DOCTYPE svg PUBLIC "-//W3C//DTD SVG 1.1//EN" "http://www.w3.org/Graphics/SVG/1.1/DTD/svg11.dtd"><svg width="100%" height="100%" viewBox="0 0 1211 249" version="1.1" xmlns="http://www.w3.org/2000/svg" xmlns:xlink="http://www.w3.org/1999/xlink" xml:space="preserve" xmlns:serif="http://www.serif.com/" style="fill-rule:evenodd;clip-rule:evenodd;stroke-linecap:round;stroke-linejoin:round;stroke-miterlimit:1.5;"><g><path d="M397.473,28.654l0,-28.654l-42.138,0c-2.802,0 -5.056,2.254 -5.056,5.057l0,97.759c0,2.802 2.254,5.057 5.056,5.057l70.791,0c2.803,0 5.057,-2.255 5.057,-5.057l0,-69.106l-28.654,0c-2.781,0 -5.056,-2.275 -5.056,-5.056Zm33.71,-2.971l0,1.285l-26.968,0l0,-26.968l1.285,0c1.348,0 2.634,0.527 3.582,1.475l20.626,20.647c0.948,0.948 1.475,2.234 1.475,3.561Z" style="fill-rule:nonzero;"/><text x="358.328px" y="75.411px" style="font-family:'Arial-BoldMT', 'Arial', sans-serif;font-weight:700;font-size:30px;fill:#fff;">FMU</text></g><g><path d="M826.171,28.654l0,-28.654l-42.138,0c-2.802,0 -5.056,2.254 -5.056,5.057l0,97.759c0,2.802 2.254,5.057 5.056,5.057l70.792,0c2.802,0 5.056,-2.255 5.056,-5.057l0,-69.106l-28.653,0c-2.781,0 -5.057,-2.275 -5.057,-5.056Zm33.71,-2.971l0,1.285l-26.968,0l0,-26.968l1.285,0c1.349,0 2.634,0.527 3.582,1.475l20.627,20.647c0.948,0.948 1.474,2.234 1.474,3.561Z" style="fill-rule:nonzero;"/><text x="787.027px" y="75.411px" style="font-family:'Arial-BoldMT', 'Arial', sans-serif;font-weight:700;font-size:30px;fill:#fff;">FMU</text></g><g><path d="M453.479,43.574l92.957,0l115.501,173.024l157.492,0" style="fill:none;stroke:#000;stroke-width:12px;"/><path d="M854.675,216.598l-51.668,-30.233l0,60.466l51.668,-30.233Z"/></g><g><path d="M751.475,43.104l-92.957,0l-115.502,173.025l-157.491,0" style="fill:none;stroke:#000;stroke-width:12px;"/><path d="M350.279,216.129l51.667,-30.234l0,60.467l-51.667,-30.233Z"/></g><g><path d="M296.497,13.281c0,-7.33 -5.951,-13.281 -13.281,-13.281l-269.935,0c-7.33,0 -13.281,5.951 -13.281,13.281l0,221.233c0,7.33 5.951,13.281 13.281,13.281l269.935,0c7.33,0 13.281,-5.951 13.281,-13.281l0,-221.233Z"/><path d="M284.439,55.434c0,-1.827 -1.483,-3.311 -3.31,-3.311l-265.541,0c-1.827,0 -3.31,1.484 -3.31,3.311l0,175.711c0,1.827 1.483,3.311 3.31,3.311l265.541,0c1.827,0 3.31,-1.484 3.31,-3.311l0,-175.711Z" style="fill:#fff;"/><circle cx="31.371" cy="26.994" r="10.388" style="fill:#fff;"/><circle cx="62.994" cy="26.994" r="10.388" style="fill:#fff;"/><circle cx="94.617" cy="26.994" r="10.388" style="fill:#fff;"/></g><g><path d="M1210.16,13.75c0,-7.33 -5.951,-13.281 -13.281,-13.281l-269.936,0c-7.329,0 -13.28,5.951 -13.28,13.281l0,221.234c0,7.33 5.951,13.28 13.28,13.28l269.936,0c7.33,0 13.281,-5.95 13.281,-13.28l0,-221.234Z"/><path d="M1198.1,55.903c0,-1.827 -1.484,-3.31 -3.311,-3.31l-265.54,0c-1.827,0 -3.31,1.483 -3.31,3.31l0,175.711c0,1.828 1.483,3.311 3.31,3.311l265.54,0c1.827,0 3.311,-1.483 3.311,-3.311l0,-175.711Z" style="fill:#fff;"/><circle cx="945.034" cy="27.463" r="10.388" style="fill:#fff;"/><circle cx="976.657" cy="27.463" r="10.388" style="fill:#fff;"/><circle cx="1008.28" cy="27.463" r="10.388" style="fill:#fff;"/></g></svg>